<?xml version="1.0" encoding="UTF-8"?>
<svg width="700pt" height="700pt" version="1.1" viewBox="0 0 700 700" xmlns="http://www.w3.org/2000/svg" xmlns:xlink="http://www.w3.org/1999/xlink">
 <defs>
  <symbol id="x" overflow="visible">
   <path d="m0.015625 0h-0.015625v-0.015625h0.015625-0.015625v0.015625h0.015625z"/>
  </symbol>
  <symbol id="c" overflow="visible">
   <path d="m0.015625-0.015625h-0.015625v0.015625-0.015625h0.015625z"/>
  </symbol>
  <symbol id="a" overflow="visible">
   <path d="m0.015625-0.015625v0.015625h-0.015625 0.015625-0.015625v-0.015625h0.015625zm0 0h-0.015625z"/>
  </symbol>
  <symbol id="b" overflow="visible">
   <path d="m0.015625 0h-0.015625 0.015625zm0-0.015625v0.015625h-0.015625c0-0.0078125 0.0039062-0.015625 0.015625-0.015625h-0.015625 0.015625z"/>
  </symbol>
  <symbol id="e" overflow="visible">
   <path d="m0.015625-0.015625v0.015625h-0.015625v-0.015625z"/>
  </symbol>
  <symbol id="i" overflow="visible">
   <path d="m0.015625-0.015625v0.015625h-0.015625v-0.015625h0.015625zm0 0.015625v-0.015625h-0.015625v0.015625h0.015625z"/>
  </symbol>
  <symbol id="m" overflow="visible">
   <path d="m0.015625 0v-0.015625h-0.015625v0.015625h0.015625zm-0.015625-0.015625h0.015625v0.015625h-0.015625z"/>
  </symbol>
  <symbol id="h" overflow="visible">
   <path d="m0-0.015625 0.015625 0.015625v-0.015625 0.015625h-0.015625z"/>
  </symbol>
  <symbol id="l" overflow="visible">
   <path d="m0.015625-0.015625h-0.015625v0.015625h0.015625v-0.015625zm0 0v0.015625h-0.015625v-0.015625h0.015625z"/>
  </symbol>
  <symbol id="w" overflow="visible">
   <path d="m0-0.015625v0.015625z"/>
  </symbol>
  <symbol id="k" overflow="visible">
   <path d="m0-0.015625h0.015625v0.015625h-0.015625z"/>
  </symbol>
  <symbol id="g" overflow="visible">
   <path d="m0.015625-0.015625h-0.015625 0.015625v0.015625h-0.015625 0.015625-0.015625v-0.015625h0.015625z"/>
  </symbol>
  <symbol id="f" overflow="visible">
   <path d="m0.015625-0.015625v0.015625-0.015625h-0.015625v0.015625-0.015625h0.015625z"/>
  </symbol>
  <symbol id="j" overflow="visible">
   <path d="m0-0.015625h0.015625v0.015625h-0.015625z"/>
  </symbol>
  <symbol id="d" overflow="visible">
   <path d="m0.015625-0.015625h-0.015625v0.015625h0.015625v-0.015625zm0 0v0.015625h-0.015625v-0.015625h0.015625z"/>
  </symbol>
  <symbol id="v" overflow="visible">
   <path d="m0-0.015625 0.015625 0.015625v-0.015625 0.015625h-0.015625z"/>
  </symbol>
  <symbol id="u" overflow="visible">
   <path d="m0-0.015625v0.015625z"/>
  </symbol>
  <symbol id="t" overflow="visible">
   <path d="m0.015625-0.015625v0.015625h-0.015625v-0.015625h0.015625z"/>
  </symbol>
  <symbol id="s" overflow="visible">
   <path d="m0.015625-0.015625h0.015625v0.015625h-0.015625v-0.015625 0.015625-0.015625h-0.015625v0.015625-0.015625h0.015625z"/>
  </symbol>
  <symbol id="r" overflow="visible">
   <path d="m0.015625-0.015625v0.015625-0.015625h-0.015625v0.015625-0.015625h0.015625z"/>
  </symbol>
  <symbol id="q" overflow="visible">
   <path d="m0-0.015625h0.015625v0.015625-0.015625 0.015625l-0.015625-0.015625v0.015625z"/>
  </symbol>
  <symbol id="p" overflow="visible">
   <path d="m0 0v-0.015625 0.015625h0.015625v-0.015625 0.015625h-0.015625z"/>
  </symbol>
  <symbol id="o" overflow="visible">
   <path d="m0-0.015625v0.015625z"/>
  </symbol>
  <symbol id="n" overflow="visible">
   <path d="m0.015625-0.015625h-0.015625v0.015625h0.015625-0.015625v-0.015625h0.015625z"/>
  </symbol>
 </defs>
 <g>
  <path d="m153.75 414.36 331.98-331.98c-2.4219-2.707-3.6797-6.2148-2.9336-9.8203l-42.867-42.867c-5.7773-5.7773 1.6328-15.215 5.9492-19.531 4.5586-4.5586 13.73-11.754 19.734-5.75l41.543 41.543c1.8984-1.418 3.6797-2.2773 5.5039-2.6719 0.77344-0.16797 1.5352-0.25 2.3008-0.25391l6.3047-6.4727c2.3203-2.3828 4.3711-4.4062 7.1602-5.5078 2.9141-1.1484 6.2461-1.1406 10.766 0.76953 6.4453 2.7266 14.797 8.4414 23.613 15.707l4.5156-4.5156c-2.4023-1.9375-3.6562-3.6445-3.8906-5.582-0.26563-2.1836 0.72266-4.0078 2.7969-6.0781l13.32-13.32c1.6172-1.6172 4.1562-1.6797 7.2266-0.62109l5.3438-5.3438c3.4531-3.4531 10.355-0.60938 17.328 4.8906 2.418 1.9102 4.8359 4.0703 7.0742 6.3086 2.2383 2.2383 4.4023 4.6562 6.3086 7.0742 5.5039 6.9727 8.3477 13.871 4.8906 17.328l-5.3438 5.3438c1.0586 3.0664 0.99609 5.6094-0.62109 7.2266l-12.902 12.902c-2.0664 2.0664-3.9023 3.0625-6.082 2.8086-1.9375-0.22656-3.6445-1.4648-5.543-3.8516l-4.3945 4.3945c10.512 11.738 19.062 23.383 22.422 31.695 1.3711 3.3945 1.8672 5.9375 1.0234 8.8008-0.77734 2.625-2.6641 5.1562-6.082 8.6328-1.1914 1.2109-2.3516 2.3906-3.4922 3.5352-0.93359 0.9375-1.8438 1.8438-2.7266 2.7148 0.011719 0.89844-0.097656 1.793-0.34375 2.7148-0.72266 2.6953-2.6055 5.2617-6.043 8.7617-7.6016 7.7344-13.871 13.973-19.23 17.262-5.4492 3.3438-10.004 3.9102-13.891 0.50391l-332.06 332.06c3.4062 3.8867 2.8398 8.4414-0.50391 13.891-3.2891 5.3594-9.5273 11.629-17.262 19.23-3.4961 3.4375-6.0625 5.3203-8.7617 6.043-0.92188 0.24609-1.8125 0.35938-2.7148 0.34375-0.87109 0.88281-1.7773 1.793-2.7148 2.7266-1.1445 1.1406-2.3242 2.3008-3.5352 3.4922-5.7461 5.6523-9.4883 8.2695-17.43 5.0586-8.3125-3.3594-19.957-11.914-31.695-22.422l-4.3945 4.3945c4.6016 3.6641 5.3867 7.2852 1.043 11.629l-12.902 12.902c-1.6172 1.6172-4.1602 1.6797-7.2266 0.62109l-5.3438 5.3438c-3.4531 3.4531-10.355 0.61328-17.328-4.8906-4.9023-3.8711-9.5156-8.4844-13.387-13.387-5.5039-6.9727-8.3477-13.871-4.8906-17.328l5.3438-5.3438c-1.0586-3.0664-0.99609-5.6094 0.62109-7.2266l13.32-13.32c4.3867-4.3867 7.9648-3.4883 11.66 1.0938l4.5156-4.5156c-7.2656-8.8164-12.98-17.168-15.707-23.613-1.9102-4.5195-1.918-7.8555-0.76953-10.766 1.1016-2.7891 3.125-4.8398 5.5078-7.1602l5.9727-5.8164c-0.30469-1.9453 0.035156-3.7305 0.99609-5.4336l-41.945-41.945c-5.8086-5.8086 1.6094-15.207 5.9414-19.539 4.5586-4.5586 13.73-11.754 19.734-5.75l41.797 41.797c4.5156-2.6445 9.4805-2.707 13.41 1.082zm74.906 54.449c-0.46094 0.46094-1.2148 0.46094-1.6758 0-0.46094-0.46094-0.46094-1.2148 0-1.6758l310.33-310.33c0.46094-0.46094 1.2148-0.46094 1.6758 0 0.46094 0.46094 0.46094 1.2148 0 1.6758zm-13.285-11.188c-0.46094 0.46094-1.2148 0.46094-1.6758 0-0.46094-0.46094-0.46094-1.2148 0-1.6758l312.43-312.43c0.46094-0.46094 1.2148-0.46094 1.6758 0 0.46094 0.46094 0.46094 1.2148 0 1.6758zm-12.844-11.629c-0.46094 0.46094-1.2148 0.46094-1.6758 0-0.46094-0.46094-0.46094-1.2148 0-1.6758l313.64-313.64c0.46094-0.46094 1.2148-0.46094 1.6758 0 0.46094 0.46094 0.46094 1.2148 0 1.6758zm-11.629-12.844c-0.46094 0.46094-1.2148 0.46094-1.6758 0-0.46094-0.46094-0.46094-1.2148 0-1.6758l312.43-312.43c0.46094-0.46094 1.2148-0.46094 1.6758 0 0.46094 0.46094 0.46094 1.2148 0 1.6758zm-11.188-13.285c-0.46094 0.46094-1.2148 0.46094-1.6758 0-0.46094-0.46094-0.46094-1.2148 0-1.6758l310.33-310.33c0.46094-0.46094 1.2148-0.46094 1.6758 0 0.46094 0.46094 0.46094 1.2148 0 1.6758zm305.81-352.63c0.25-0.29297 0.51562-0.58203 0.79297-0.85938l16.617-16.605-41.352-41.352c-2.7617-2.7617-9.707 3.7969-11.672 5.7656-2.0352 2.0352-8.582 8.8594-5.7227 11.719l41.332 41.332zm-367.09 367.06c0.60156-0.61719 1.2617-1.2812 1.9922-2.0117l15.359-15.395 0.058594-0.058593-41.336-41.336c-2.7617-2.7617-9.707 3.7969-11.672 5.7656-1.8984 1.8984-8.4961 8.9414-5.8398 11.598zm2.8086 13.949c4.8867 10.949 18.988 28.051 34.609 43.613 15.566 15.508 32.512 29.367 43.223 33.953 2.3242 0.99609 3.9219 1.418 5.3359 1.0391 1.6211-0.4375 3.4805-1.8789 6.25-4.5977 7.4531-7.3242 13.453-13.344 16.398-18.141 2.1992-3.5859 2.4297-6.3555-0.26172-8.4258-0.12891-0.078126-0.25-0.17188-0.36719-0.27344-12.512-9.1367-26.762-21.73-40.16-35.152-13.547-13.57-26.266-28.035-35.465-40.668-3.3672-4.6211-7.625-2.082-10.996 1.2969l-15.359 15.395c-4.5742 4.582-6.293 5.0469-3.207 11.961zm22.344 69.453c-2.3281-2.1719-4.6445-4.4062-6.9258-6.6758-4.9648-4.9453-9.7695-10.082-14.156-15.145l-4.5938 4.5938c3.4531 4.125 7.3281 8.4336 11.262 12.48 3.3125 3.4062 6.6523 6.6172 9.8008 9.3555l4.6094-4.6094zm-49.242-2.1797c1.2812 2.1641 3.5273 5.1719 6.2383 8.4648 4.457 5.418 9.8125 10.773 15.23 15.23 5.832 4.7969 10.777 8.1562 11.699 7.2305l12.902-12.902c1.3711-1.3398 1.4375-1.6328-0.78125-3.3438-4.4766-3.4609-9.5469-8.1719-14.523-13.289-5.3984-5.5508-10.723-11.633-15.074-17.145-1.5078-1.8711-2.1211-2.0352-3.3672-0.80469l-11.953 11.953c-2.5117 2.5117-1.4922 1.6367-0.37109 4.6055zm-2.9883 5.3594-3.9688 3.9688c-0.94922 0.94922 1.5742 5.0547 5.3125 9.793 3.5234 4.4609 7.9883 8.9297 12.453 12.453 4.7383 3.7422 8.8438 6.2617 9.793 5.3125l3.9688-3.9688c-2.1484-1.3164-4.4141-2.9609-6.7031-4.8438-5.7734-4.7461-11.262-10.234-16.008-16.008-1.8828-2.2891-3.5312-4.5547-4.8477-6.7031zm105.46 10.145c-11.383-4.8906-28.977-19.207-44.969-35.141-16.047-15.988-30.609-33.73-35.789-45.324-0.070313-0.15625-0.13672-0.30859-0.20312-0.46094l-4.0508 3.9453c-1.8984 1.8477-3.5039 3.4609-4.1758 5.1602-0.62109 1.5742-0.54297 3.5547 0.70312 6.5 4.4219 10.461 17.613 26.641 32.324 41.297 14.66 14.602 30.695 27.559 40.934 31.699 5.5312 2.2344 7.2695 0.16797 11.34-3.8398 1.2148-1.1953 2.3906-2.3555 3.5117-3.4688l0.37109-0.36719zm31.184-41.484 332.83-332.83c-8.8164-11.812-20.562-25.055-33.094-37.59-12.535-12.535-25.777-24.281-37.59-33.098l-332.84 332.84c8.8203 11.734 20.531 24.922 32.984 37.398 12.594 12.617 25.902 24.457 37.711 33.277zm365.6-421.86c-2.7422-3.1484-5.9492-6.4883-9.3555-9.8008-4.0469-3.9336-8.3516-7.8086-12.48-11.262l-4.5938 4.5938c5.0625 4.3828 10.195 9.1914 15.145 14.156 2.2695 2.2812 4.5039 4.5977 6.6758 6.9258l4.6094-4.6094zm26.129-20.062 3.9688-3.9688c0.94922-0.94922-1.5703-5.0547-5.3125-9.793-1.6875-2.1367-3.707-4.3828-5.8867-6.5625-2.1836-2.1836-4.4258-4.2031-6.5625-5.8867-4.7383-3.7422-8.8438-6.2656-9.793-5.3125l-3.9688 3.9688c2.1484 1.3164 4.4141 2.9648 6.7031 4.8477 2.8281 2.3281 5.6914 4.9414 8.3789 7.6289s5.3008 5.5508 7.6289 8.3789c1.8828 2.2891 3.5312 4.5547 4.8438 6.7031zm-36.156-25.566-13.32 13.32c-0.78516 0.78516-1.1914 1.2461-1.1719 1.3906 0.039063 0.33203 0.67969 0.95313 1.9766 1.9766 5.5117 4.3516 11.59 9.6758 17.145 15.074 5.1172 4.9766 9.8281 10.047 13.289 14.523 1 1.293 1.6094 1.9258 1.9297 1.9648 0.15625 0.019531 0.625-0.39062 1.418-1.1836l12.902-12.902c0.92187-0.92188-2.4336-5.8672-7.2305-11.699-2.1211-2.5781-4.6133-5.3008-7.2734-7.957-2.6562-2.6562-5.3789-5.1523-7.957-7.2734-0.44922-0.36719-10.352-8.5859-11.703-7.2344zm-62.184 22.516c0.15234 0.066406 0.30469 0.13281 0.46094 0.20312 11.594 5.1758 29.336 19.738 45.324 35.789 15.934 15.992 30.25 33.586 35.141 44.969l0.36719-0.37109c1.1133-1.1211 2.2734-2.2969 3.4688-3.5117 2.7422-2.7891 4.2109-4.6523 4.6836-6.2539 0.40234-1.3672 0.042968-2.8867-0.84375-5.0859-4.1367-10.238-17.098-26.277-31.699-40.934-14.656-14.715-30.836-27.902-41.297-32.324-2.9453-1.2461-4.9258-1.3242-6.5-0.70312-1.6992 0.67188-3.3125 2.2773-5.1602 4.1758l-3.9492 4.0547zm54.016 111.2c4.8008-2.9453 10.816-8.9414 18.141-16.398 2.7188-2.7695 4.1641-4.6289 4.5977-6.25 0.37891-1.4141-0.042969-3.0117-1.0391-5.3359-4.5859-10.711-18.445-27.66-33.953-43.223-15.562-15.621-32.664-29.723-43.613-34.609-2.2695-1.0117-4.043-1.4609-5.6719-1.1094-1.75 0.37891-3.6484 1.6758-6.1289 4.1562l-17.418 17.406c-3.2578 3.2539-2.418 6.9609 1.1875 9.5898 12.625 9.1953 26.887 21.746 40.25 35.105 13.359 13.359 25.91 27.625 35.105 40.25 2.082 2.8594 4.8906 2.6602 8.543 0.41797z"/>
  <use x="70" y="560.085938" xlink:href="#x"/>
  <use x="70.019531" y="560.085938" xlink:href="#c"/>
  <use x="70.035156" y="560.085938" xlink:href="#a"/>
  <use x="70.054688" y="560.085938" xlink:href="#b"/>
  <use x="70.070312" y="560.085938" xlink:href="#e"/>
  <use x="70.085938" y="560.085938" xlink:href="#a"/>
  <use x="70.105469" y="560.085938" xlink:href="#i"/>
  <use x="70.132812" y="560.085938" xlink:href="#m"/>
  <use x="70.15625" y="560.085938" xlink:href="#h"/>
  <use x="70.183594" y="560.085938" xlink:href="#l"/>
  <use x="70.207031" y="560.085938" xlink:href="#w"/>
  <use x="70.214844" y="560.085938" xlink:href="#a"/>
  <use x="70.234375" y="560.085938" xlink:href="#k"/>
  <use x="70.253906" y="560.085938" xlink:href="#g"/>
  <use x="70.269531" y="560.085938" xlink:href="#b"/>
  <use x="70.289062" y="560.085938" xlink:href="#f"/>
  <use x="70.308594" y="560.085938" xlink:href="#i"/>
  <use x="70.328125" y="560.085938" xlink:href="#c"/>
  <use x="70.351562" y="560.085938" xlink:href="#j"/>
  <use x="70.375" y="560.085938" xlink:href="#b"/>
  <use x="70.390625" y="560.085938" xlink:href="#f"/>
  <use x="70.410156" y="560.085938" xlink:href="#b"/>
  <use x="70.429688" y="560.085938" xlink:href="#g"/>
  <use x="70.449219" y="560.085938" xlink:href="#d"/>
  <use x="70.464844" y="560.085938" xlink:href="#v"/>
  <use x="70.484375" y="560.085938" xlink:href="#g"/>
  <use x="70.5" y="560.085938" xlink:href="#k"/>
  <use x="70.519531" y="560.085938" xlink:href="#h"/>
  <use x="70.539062" y="560.085938" xlink:href="#u"/>
  <use x="70" y="560.113281" xlink:href="#t"/>
  <use x="70.011719" y="560.113281" xlink:href="#c"/>
  <use x="70.027344" y="560.113281" xlink:href="#d"/>
  <use x="70.046875" y="560.113281" xlink:href="#s"/>
  <use x="70.085938" y="560.113281" xlink:href="#e"/>
  <use x="70.097656" y="560.113281" xlink:href="#r"/>
  <use x="70.117188" y="560.113281" xlink:href="#a"/>
  <use x="70.144531" y="560.113281" xlink:href="#q"/>
  <use x="70.167969" y="560.113281" xlink:href="#d"/>
  <use x="70.1875" y="560.113281" xlink:href="#p"/>
  <use x="70.207031" y="560.113281" xlink:href="#f"/>
  <use x="70.238281" y="560.113281" xlink:href="#j"/>
  <use x="70.257812" y="560.113281" xlink:href="#c"/>
  <use x="70.273438" y="560.113281" xlink:href="#d"/>
  <use x="70.292969" y="560.113281" xlink:href="#o"/>
  <use x="70.300781" y="560.113281" xlink:href="#a"/>
  <use x="70.320312" y="560.113281" xlink:href="#n"/>
  <use x="70.335938" y="560.113281" xlink:href="#e"/>
 </g>
</svg>
